<?xml version="1.0" standalone="no"?>
<!DOCTYPE svg PUBLIC "-//W3C//DTD SVG 20010904//EN"
 "http://www.w3.org/TR/2001/REC-SVG-20010904/DTD/svg10.dtd">
<svg version="1.0" xmlns="http://www.w3.org/2000/svg"
 width="512.000000pt" height="512.000000pt" viewBox="0 0 512.000000 512.000000"
 preserveAspectRatio="xMidYMid meet">

<g transform="translate(0.000000,512.000000) scale(0.100000,-0.100000)"
fill="#000000" stroke="none">
<path d="M3539 2963 c-71 -10 -102 -125 -48 -179 22 -22 36 -26 79 -26 73 0
104 30 104 102 0 41 -5 55 -25 74 -25 24 -65 35 -110 29z"/>
<path d="M514 2947 c-3 -8 -4 -45 -2 -83 l3 -69 210 -5 c135 -3 210 -9 210
-15 0 -6 -24 -44 -53 -85 -30 -41 -128 -181 -218 -310 l-164 -235 2 -75 3 -75
345 0 345 0 3 83 3 82 -213 0 c-117 0 -218 4 -225 8 -13 8 16 53 146 234 94
129 185 257 212 298 14 21 38 55 53 74 24 33 27 43 24 108 l-3 73 -338 3
c-277 2 -338 0 -343 -11z"/>
<path d="M2990 2653 c-19 -8 -49 -26 -67 -39 -40 -30 -53 -30 -53 -1 0 13 -5
28 -12 35 -17 17 -142 16 -157 -2 -8 -9 -11 -105 -9 -332 l3 -319 65 -3 c118
-6 110 -19 110 186 0 153 2 182 19 212 25 48 75 80 125 80 64 0 67 5 64 106
-3 87 -4 89 -28 91 -14 1 -41 -5 -60 -14z"/>
<path d="M1627 2654 c-4 -4 -7 -120 -7 -258 l0 -251 28 -50 c16 -30 44 -61 71
-79 40 -26 52 -29 130 -30 70 0 94 4 128 22 23 12 45 26 48 32 9 14 24 3 36
-26 8 -24 12 -25 91 -22 l83 3 3 324 c2 253 -1 326 -10 333 -21 13 -144 10
-156 -4 -5 -8 -11 -98 -14 -209 l-4 -196 -27 -37 c-47 -61 -112 -82 -172 -54
-53 24 -60 54 -65 288 l-5 215 -75 3 c-42 1 -79 0 -83 -4z"/>
<path d="M3492 2648 c-9 -9 -12 -96 -12 -329 0 -359 -8 -329 90 -329 98 0 90
-30 90 329 0 233 -3 320 -12 329 -16 16 -140 16 -156 0z"/>
<path d="M4276 2362 c-72 -41 -116 -108 -116 -177 0 -59 51 -135 112 -166 116
-60 268 37 268 171 0 131 -157 233 -264 172z"/>
</g>
</svg>
