<?xml version="1.0" standalone="no"?>
<!DOCTYPE svg PUBLIC "-//W3C//DTD SVG 20010904//EN"
 "http://www.w3.org/TR/2001/REC-SVG-20010904/DTD/svg10.dtd">
<svg version="1.0" xmlns="http://www.w3.org/2000/svg"
 width="640.000000pt" height="640.000000pt" viewBox="0 0 640.000000 640.000000"
 preserveAspectRatio="xMidYMid meet">

<g transform="translate(0.000000,640.000000) scale(0.100000,-0.100000)"
fill="#000000" stroke="none">
<path d="M4692 3759 c-40 -15 -61 -50 -62 -97 0 -81 83 -128 163 -91 28 13 57
58 57 89 0 74 -86 128 -158 99z"/>
<path d="M1550 3580 l0 -80 200 0 c110 0 200 -2 200 -5 0 -2 -76 -118 -168
-257 -253 -381 -232 -343 -232 -426 l0 -72 310 0 310 0 0 80 0 80 -205 0 -204
0 91 138 c50 75 142 214 204 307 l114 171 0 72 0 72 -310 0 -310 0 0 -80z"/>
<path d="M4127 3464 c-29 -9 -65 -31 -92 -58 l-45 -43 0 54 0 53 -90 0 -90 0
0 -365 0 -365 90 0 90 0 0 213 c0 187 3 217 19 254 24 51 59 71 141 80 l60 6
0 93 c0 106 2 104 -83 78z"/>
<path d="M2632 3208 c3 -252 4 -265 27 -315 26 -59 81 -114 138 -139 24 -11
67 -17 118 -17 84 -1 114 9 182 59 l32 24 3 -37 3 -38 93 -3 92 -3 -2 363 -3
363 -90 0 -90 0 -5 -240 c-6 -266 -8 -276 -73 -315 -44 -27 -131 -27 -175 0
-64 39 -72 76 -72 333 l0 227 -91 0 -90 0 3 -262z"/>
<path d="M4650 3463 c0 -4 0 -168 -1 -363 l-1 -355 89 0 88 0 0 360 0 360 -87
3 c-49 1 -88 -1 -88 -5z"/>
<path d="M5154 3004 c-35 -17 -74 -79 -74 -118 0 -96 100 -162 193 -127 39 15
80 76 80 119 0 106 -105 173 -199 126z"/>
</g>
</svg>
